<?xml version="1.0" encoding="iso-8859-1"?>
<!-- Generator: Adobe Illustrator 19.0.0, SVG Export Plug-In . SVG Version: 6.00 Build 0)  -->
<svg version="1.1" id="Layer_1" xmlns="http://www.w3.org/2000/svg" xmlns:xlink="http://www.w3.org/1999/xlink" x="0px" y="0px"
	 viewBox="0 0 481.882 481.882" style="enable-background:new 0 0 481.882 481.882;" xml:space="preserve">
<rect x="395.144" y="111.435" style="fill:#F6C358;" width="16.866" height="67.464"/>
<polygon style="fill:#DC8744;" points="412.009,221.064 481.882,145.167 412.009,69.271 412.009,121.675 412.009,168.659 "/>
<rect x="395.144" y="302.984" style="fill:#D15241;" width="16.866" height="67.464"/>
<polygon style="fill:#EBF0F3;" points="412.009,313.224 412.009,360.207 412.009,412.612 481.882,336.715 412.009,260.819 "/>
<g>
	<path style="fill:#E56353;" d="M148.179,136.734c-11.445-16.264-28.913-25.299-47.586-25.299H0v67.464h95.172l33.732,47.586
		l41.562-58.428L148.179,136.734z"/>
	<path style="fill:#E56353;" d="M213.835,345.148c11.445,16.264,28.913,25.299,47.586,25.299h133.722v-67.464H266.842
		l-33.732-47.586l-41.562,58.428L213.835,345.148z"/>
</g>
<polygon style="fill:#D15241;" points="128.904,226.485 191.548,313.826 233.111,255.398 170.466,168.056 "/>
<path style="fill:#FCD462;" d="M261.421,111.435c-18.673,0-36.141,9.035-47.586,25.299L95.172,302.984H0v67.464h100.593
	c18.673,0,36.141-9.035,47.586-25.299l118.664-166.249h128.301v-67.464H261.421z"/>
<g>
</g>
<g>
</g>
<g>
</g>
<g>
</g>
<g>
</g>
<g>
</g>
<g>
</g>
<g>
</g>
<g>
</g>
<g>
</g>
<g>
</g>
<g>
</g>
<g>
</g>
<g>
</g>
<g>
</g>
</svg>
