<?xml version="1.0" encoding="iso-8859-1"?>
<!-- Generator: Adobe Illustrator 19.0.0, SVG Export Plug-In . SVG Version: 6.00 Build 0)  -->
<svg version="1.1" id="Layer_1" xmlns="http://www.w3.org/2000/svg" xmlns:xlink="http://www.w3.org/1999/xlink" x="0px" y="0px"
	 viewBox="0 0 495 495" style="enable-background:new 0 0 495 495;" xml:space="preserve">
<g>
	<path style="fill:#46F8FF;" d="M256.38,190.189l32.218,29.376c20.822-13.251,45.516-20.938,71.972-20.938
		c27.506,0,53.105,8.31,74.43,22.542V27.514L256.2,190.189H256.38z"/>
	<polygon style="fill:#9BFBFF;" points="435,27.514 0,27.514 217.5,225.284 	"/>
	<path style="fill:#00E7F0;" d="M288.598,219.565l-32.218-29.376h-0.18l-38.7,35.095l-38.79-35.095L0,353.054h227.63
		c-0.978-6.526-1.489-13.203-1.489-19.998C226.141,285.389,251.083,243.44,288.598,219.565z"/>
	<polygon style="fill:#46F8FF;" points="0,27.514 0,353.054 178.71,190.189 	"/>
	<path style="fill:#FFDA44;" d="M343.464,398.663l-65.607-65.606l65.607-65.606l17.106,17.106v-85.929
		c-26.457,0-51.15,7.687-71.972,20.938c-37.515,23.875-62.457,65.823-62.457,113.491c0,6.795,0.511,13.471,1.489,19.998
		c9.687,64.674,65.61,114.432,132.94,114.432v-85.93L343.464,398.663z"/>
	<polygon style="fill:#FFDA44;" points="360.57,373.343 360.57,355.769 337.857,333.056 360.57,310.343 360.57,292.769 
		320.284,333.056 	"/>
	<path style="fill:#FFCD00;" d="M435,221.169c-21.325-14.232-46.924-22.542-74.43-22.542v85.929l4.106,4.106l-4.106,4.107v17.574
		l42.894-42.893l21.213,21.213l-44.393,44.394l44.393,44.394l-21.213,21.213l-42.894-42.893v17.574l4.106,4.107l-4.106,4.106v85.93
		c74.125,0,134.43-60.305,134.43-134.43C495,286.438,471.143,245.291,435,221.169z"/>
	<polygon style="fill:#2488FF;" points="277.857,333.056 343.464,398.663 364.677,377.45 360.57,373.343 320.284,333.056 
		360.57,292.769 364.677,288.663 343.464,267.45 	"/>
	<polygon style="fill:#2488FF;" points="360.57,355.769 403.464,398.663 424.677,377.45 380.284,333.056 424.677,288.663 
		403.464,267.45 360.57,310.343 337.857,333.056 	"/>
</g>
<g>
</g>
<g>
</g>
<g>
</g>
<g>
</g>
<g>
</g>
<g>
</g>
<g>
</g>
<g>
</g>
<g>
</g>
<g>
</g>
<g>
</g>
<g>
</g>
<g>
</g>
<g>
</g>
<g>
</g>
</svg>
